<svg width="474" height="168" viewBox="0 0 474 168" fill="none" xmlns="http://www.w3.org/2000/svg">
<rect width="474" height="168" fill="white"/>
<path d="M36.4132 73.5758L36.8945 72.9083C36.4132 72.6699 36.0282 72.2884 35.8357 71.8116C35.6432 71.2871 35.6913 70.7626 35.8357 70.2858C36.0282 69.8567 36.317 69.4753 36.6539 69.2368C37.0389 68.9508 37.4239 68.76 37.9052 68.6647C38.7715 68.474 39.686 68.5693 40.5523 68.76C42.718 69.1892 44.8838 69.809 47.0014 70.3335C49.1191 70.8103 51.2367 71.4302 53.4025 71.7162C53.595 71.7639 53.8356 71.8116 54.0762 71.8116V77.6763L50.8998 80.8233L54.0762 83.9702V92.0282C52.8249 92.6481 51.4773 93.0772 50.0816 93.2203C47.7715 93.5064 45.3651 93.0772 43.3437 91.9329C42.5255 91.5038 41.7555 90.9316 41.0817 90.2641L49.5522 86.7357V72.2407L38.964 76.7227C40.0229 74.4341 41.7073 72.4791 43.825 71.0964L43.3437 70.3812C40.6004 70.858 38.0496 72.1454 36.0764 74.0526C34.1031 76.0075 32.7555 78.5346 32.2261 81.2524C31.4079 85.5913 32.8518 90.2641 35.8838 93.554C38.9159 96.844 43.4399 98.7036 47.9159 98.5605C50.3704 98.4651 52.7768 97.7976 54.8944 96.5579C57.0121 95.3182 58.7447 93.5063 59.8997 91.3607C60.9104 89.4058 61.4398 87.2125 61.3436 85.0192H60.4291C59.5628 87.1648 58.1671 89.072 56.3864 90.5501C56.0495 90.7885 55.7607 91.027 55.4238 91.2654V84.0179L58.6003 80.8233L55.4238 77.6287V71.907C55.8089 71.907 56.242 71.8593 56.627 71.8116C57.734 71.7162 58.7928 71.3348 59.6591 70.7626C60.7179 70.0474 61.488 69.0461 61.8249 67.8541C62.1136 66.6621 61.9692 65.3747 61.3917 64.3257C60.8623 63.3244 59.996 62.5139 58.9853 61.9894C58.0227 61.4649 56.8677 61.1788 55.7607 61.0358C55.1832 60.9881 54.5575 60.9881 53.98 61.0358V61.9417C54.4613 61.9894 54.9907 62.0847 55.5201 62.1801C56.0495 62.3231 56.5308 62.4662 56.9639 62.7999C57.1564 62.943 57.3489 63.1814 57.4933 63.4198C57.5896 63.6105 57.6377 63.8966 57.6377 64.135C57.5896 64.4211 57.4933 64.6118 57.3489 64.8502C57.2046 65.0409 57.0121 65.184 56.8195 65.327C56.3864 65.5178 55.857 65.5654 55.3757 65.5654C53.9319 65.5178 52.5361 65.0886 51.1404 64.7549C49.3116 64.3734 47.579 63.7059 45.7982 63.1337C44.595 62.7523 43.3918 62.4185 42.1405 62.2278C40.8892 62.0847 39.6378 62.1324 38.4346 62.4185C37.3277 62.7046 36.2689 63.2291 35.4026 63.9443C34.5363 64.6595 33.8625 65.6131 33.4774 66.6621C32.9962 67.9495 33.0443 69.4276 33.5737 70.715C34.1031 72.0023 35.1619 73.0513 36.4132 73.5758ZM38.3384 78.3439L43.3437 76.2459V87.9277L40.1672 89.2628C39.3972 88.2615 38.7715 87.1171 38.3384 85.9251C37.5202 83.4934 37.5683 80.7756 38.3384 78.3439Z" fill="black"/>
<path d="M73.5734 93.0295V81.2524L76.2204 78.773L79.1081 81.157V92.5527C79.1081 94.5076 79.06 96.4626 78.4343 98.3221C78.0493 99.4664 77.4717 100.515 76.6054 101.374C75.8354 102.089 74.8247 102.613 73.814 102.852V103.996C75.7391 104.282 77.7605 103.996 79.5412 103.186C81.2739 102.423 82.7177 101.183 83.7284 99.6095C84.4022 98.5128 84.8835 97.2731 85.076 95.9857C85.3166 94.6984 85.3166 93.411 85.3166 92.1236V79.6789L87.3861 78.0101L86.5679 76.9611L84.6428 78.4869L79.5412 74.291L73.5734 79.8697V62.1801H72.6589L64.8141 67.6634V68.3309C65.1991 68.474 65.536 68.617 65.921 68.8077C66.2579 68.9508 66.5467 69.1892 66.7873 69.4753C66.8836 69.666 66.9798 69.9044 67.028 70.1428C67.1242 70.3812 67.1242 70.6196 67.1242 70.858V92.5527L63.8996 94.603L64.7178 95.6997L66.5467 94.5553L71.5039 98.7512L77.4717 94.603L76.6054 93.554L75.1135 94.5553L73.5734 93.0295Z" fill="black"/>
<path d="M88.1708 95.652L90.2885 93.9355L97.4595 99.1804L107.374 91.2177L106.7 90.0733L101.358 94.1739L95.5826 90.2641V88.2138L105.978 81.8246V81.5862L101.117 74.291L89.6147 80.2034V92.7911L87.3527 94.603L88.1708 95.652ZM95.5826 87.0694V78.4392L96.5451 77.9147L100.684 83.8748L95.5826 87.0694Z" fill="black"/>
<path d="M117.08 79.8697C116.792 81.2524 116.984 82.6828 117.562 83.9225H118.476C118.38 83.4934 118.428 83.0166 118.62 82.5875C118.813 82.1106 119.198 81.6815 119.631 81.4431C119.872 81.3478 120.161 81.2524 120.401 81.2047C120.642 81.2047 120.931 81.2047 121.171 81.2047C121.604 81.2047 122.038 81.2047 122.471 81.2047C122.471 82.4921 122.471 83.8272 122.471 85.1622C122.471 86.0682 122.471 87.0218 122.278 87.9277C122.086 88.8813 121.701 89.7396 121.123 90.4548C120.69 91.027 120.112 91.4561 119.487 91.7422H121.075C122.423 91.2654 123.77 90.5978 124.973 89.7396C126.177 88.929 127.235 87.9277 127.909 86.6403C128.246 86.0205 128.439 85.3053 128.535 84.6377C128.679 83.9225 128.679 83.2073 128.679 82.4921V78.773V73.4804C128.679 71.7639 128.824 70.0474 129.449 68.4263C130.027 66.9482 130.893 65.6131 131.952 64.4211C132.385 63.8966 132.914 63.4198 133.444 62.9907C133.54 62.943 133.588 62.8953 133.685 62.7999L133.781 62.0847C133.011 62.6092 132.193 62.9907 131.278 63.1337C130.604 63.2768 129.882 63.3244 129.209 63.2291C128.342 63.086 127.476 62.7999 126.658 62.5139C125.84 62.2755 124.973 61.9894 124.107 61.9417C123.289 61.9417 122.471 62.0847 121.749 62.4185C121.027 62.7523 120.353 63.2291 119.776 63.7536C118.235 65.184 117.08 66.9959 116.07 68.8077H117.177C117.321 68.1402 117.802 67.5203 118.428 67.1866C118.957 66.8528 119.631 66.7575 120.305 66.8051C121.364 66.9005 122.374 67.2819 123.433 67.5203C124.492 67.7587 125.551 67.8541 126.61 67.568C127.091 67.4727 127.524 67.2819 127.957 67.0912L125.984 68.7124C125.358 69.2368 124.733 69.809 124.203 70.4289C123.674 71.0487 123.289 71.7639 123 72.5745C122.615 73.6235 122.519 74.7678 122.471 75.9122C121.556 75.9122 120.594 76.0075 119.776 76.389C119.054 76.675 118.428 77.1995 117.947 77.7717C117.514 78.3916 117.225 79.1544 117.08 79.8697ZM137.294 68.0925C138.642 68.9508 140.23 69.4753 141.818 69.5229L132 80.8233L132.144 72.6699C132.193 71.2871 132.289 69.9044 132.722 68.7124C133.107 67.425 133.829 66.2806 134.695 65.2793C135.61 64.2304 136.668 63.2768 137.775 62.5139L137.39 61.9417L137.005 61.4172C135.802 62.2755 134.647 63.2768 133.685 64.3734C132.722 65.5178 131.904 66.8051 131.423 68.2832C130.941 69.7137 130.845 71.2394 130.797 72.6699L130.556 83.9702C130.556 84.6377 130.556 85.2099 130.412 85.7821C130.316 86.3542 130.171 86.9264 129.882 87.4509C129.401 88.4999 128.535 89.3581 127.572 90.1687C126.706 90.8839 125.792 91.5038 124.829 92.1236C122.374 93.1249 120.112 94.7937 118.428 96.844C117.706 97.7976 117.032 98.7512 116.551 99.8002H117.995C118.62 98.7989 119.487 97.9883 120.497 97.3685C121.604 96.701 122.904 96.2718 124.203 96.1288C125.503 95.9381 126.85 96.0334 128.15 96.3195C130.267 96.7963 132.241 97.7976 133.973 99.085L140.663 93.8878C141.048 94.9845 141.578 96.0811 142.348 96.9394C143.07 97.8453 143.984 98.5605 144.995 99.0373L152.358 93.2679V91.7898L149.037 94.3169C148.364 93.7448 147.786 93.0772 147.305 92.3143C146.631 91.2654 146.246 90.0733 145.909 88.8336C145.62 87.6416 145.38 86.4496 145.043 85.2099C144.658 83.8748 144.08 82.5398 143.31 81.3478C142.54 80.2034 141.529 79.1544 140.374 78.2962C139.316 77.581 138.16 77.0088 136.957 76.6274L143.214 69.4753C144.128 69.3799 144.995 69.0938 145.861 68.6647C147.064 68.0448 148.123 66.9959 148.749 65.7562C149.422 64.5165 149.615 63.086 149.374 61.7033H148.7C148.46 62.6092 147.786 63.4198 146.968 63.8966C145.909 64.4688 144.658 64.5165 143.503 64.1827C142.444 63.8966 141.433 63.2768 140.711 62.4185L134.791 69.4276L135.465 70.1428L137.294 68.0925ZM128.439 91.17C129.497 90.3117 130.46 89.3104 131.086 88.0231C131.423 87.4032 131.663 86.7357 131.759 86.0205C131.904 85.3529 131.904 84.6377 131.904 84.0179L131.952 82.1106H132.144L132.77 81.4431C133.733 81.6338 134.695 82.063 135.562 82.6351C136.765 83.4934 137.679 84.7331 138.305 86.0682C138.979 87.3555 139.364 88.786 139.701 90.2164C139.893 91.17 140.086 92.1236 140.374 93.0772L138.979 94.1262C136.332 91.9806 132.77 90.8839 129.353 91.0746C129.016 91.1223 128.727 91.1223 128.439 91.17Z" fill="black"/>
<path d="M153.172 95.652L155.29 93.9355L162.461 99.1804L172.375 91.2177L171.701 90.0733L166.359 94.1739L160.584 90.2641V88.2138L170.979 81.8246V81.5862L166.118 74.291L154.616 80.2034V92.7911L152.354 94.603L153.172 95.652ZM160.584 87.0694V78.4392L161.546 77.9147L165.685 83.8748L160.584 87.0694Z" fill="black"/>
<path d="M173.194 95.652L175.312 93.9355L182.483 99.1804L192.397 91.2177L191.723 90.0733L186.381 94.1739L180.606 90.2641V88.2138L191.001 81.8246V81.5862L186.14 74.291L174.638 80.2034V92.7911L172.376 94.603L173.194 95.652ZM180.606 87.0694V78.4392L181.568 77.9147L185.707 83.8748L180.606 87.0694Z" fill="black"/>
<path d="M201.446 80.2511L203.563 78.6776L206.74 81.2524V95.4136C205.152 94.6984 203.563 93.9832 201.927 93.3633C201.783 93.3156 201.638 93.2203 201.446 93.1726V80.2511ZM195.863 92.5051L193.408 94.5553C194.227 94.6984 195.045 94.7937 195.863 94.9845V107H196.777L203.66 102.899V102.232C203.275 102.184 202.89 102.041 202.553 101.803C202.264 101.564 202.023 101.326 201.879 100.992C201.686 100.706 201.59 100.325 201.494 99.9909C201.446 99.6095 201.446 99.2757 201.446 98.8943V96.701C202.601 97.1778 203.66 97.7499 204.719 98.3221C205.874 97.3685 207.125 96.4149 208.376 95.5089C209.772 94.5553 211.216 93.6494 212.708 92.8388V79.5359L214.489 78.1055L213.67 77.0565L212.178 78.2485L207.51 74.1956L201.446 78.6776V77.8194C201.109 77.1519 200.724 76.532 200.243 76.0075C199.665 75.34 198.991 74.7201 198.221 74.2433L192.398 78.1055L192.879 78.8684C193.216 78.63 193.601 78.5346 193.986 78.5346C194.419 78.5346 194.804 78.6776 195.093 78.916C195.382 79.1068 195.574 79.3452 195.719 79.6313C195.863 79.965 195.911 80.2988 195.863 80.5849V92.5051Z" fill="black"/>
<path d="M222.394 83.4457C223.742 82.4921 225.474 82.063 227.159 82.2537C228.651 82.4444 230.094 83.1119 231.153 84.2086C232.597 85.6867 233.271 87.8323 233.175 89.8826C233.03 91.5991 232.453 93.3156 231.346 94.6507C230.287 95.9857 228.747 96.987 227.062 97.2731C225.667 97.5592 224.223 97.3208 223.02 96.701C221.768 96.0334 220.806 94.9845 220.276 93.6971C221.239 93.9355 222.298 93.6971 223.116 93.0772C223.886 92.4574 224.415 91.5038 224.512 90.5025C224.56 89.5488 224.175 88.5952 223.501 87.88C222.827 87.1648 221.865 86.7834 220.902 86.7357C219.651 86.7357 218.496 87.3555 217.726 88.2615C216.955 89.2151 216.57 90.4071 216.667 91.5991C216.667 92.7435 217.1 93.8401 217.677 94.7937C218.303 95.7473 219.121 96.5102 220.084 97.1301C221.961 98.3698 224.223 98.942 226.533 98.942C229.132 98.942 231.731 98.2267 233.993 96.9394C236.303 95.6043 238.228 93.6971 239.335 91.313C240.346 89.3581 240.731 87.0694 240.394 84.8761C240.057 82.7305 238.998 80.6325 237.362 79.1068C235.629 77.5333 233.271 76.5797 230.913 76.532L237.651 71.0487L238.421 64.6595H218.592L217.34 71.1441H234.618L220.854 82.3491L222.394 83.4457Z" fill="black"/>
<path d="M255.965 92.7435L253.366 94.5076L251.441 93.0295V78.9637C252.163 79.6313 252.933 80.1557 253.799 80.4895C254.377 80.7279 255.002 80.9186 255.58 80.9186C256.205 80.9663 256.831 80.8233 257.409 80.5849C258.131 80.2511 258.708 79.6789 259.141 79.0591C259.526 78.3916 259.815 77.6763 260.056 76.9135C260.296 76.0552 260.441 75.1493 260.537 74.2433H259.093C258.852 74.6248 258.516 74.9585 258.131 75.1493C257.745 75.34 257.312 75.4353 256.831 75.4353C256.013 75.4353 255.195 74.9585 254.762 74.2433H254.28L250.911 78.0578L247.398 74.291L240.949 78.63L241.623 79.5359L243.451 78.3916L245.088 80.4418V93.0295L242.056 95.0798L242.778 95.9857L244.366 94.8414L249.66 98.942L256.879 93.7924L255.965 92.7435Z" fill="black"/>
<path d="M261.958 94.8891L266.337 99.228L270.669 94.9845L266.241 90.5978L261.958 94.8891Z" fill="black"/>
<path d="M276.923 85.4483L277.163 84.7808C276.826 84.5424 276.586 84.1609 276.538 83.7318C276.538 83.4457 276.634 83.1596 276.73 82.9689C276.875 82.7305 277.067 82.5398 277.308 82.3967C277.548 82.2537 277.837 82.1583 278.078 82.1583C278.366 82.1107 278.607 82.1106 278.896 82.1106C279.088 82.1106 279.233 82.1106 279.425 82.1106V89.9303C278.559 89.9303 277.741 90.0257 276.923 90.2641C275.623 90.6455 274.42 91.4084 273.554 92.4097C272.639 93.5064 272.062 94.9368 272.11 96.4149C272.11 97.8453 272.639 99.2757 273.602 100.372C274.276 101.135 275.19 101.755 276.153 102.137C277.163 102.47 278.27 102.566 279.281 102.375L279.522 101.517C278.944 101.564 278.366 101.469 277.837 101.183C277.308 100.945 276.875 100.563 276.586 100.039C276.441 99.7525 276.345 99.3711 276.297 99.0373C276.297 98.6559 276.345 98.3221 276.489 97.9883C276.634 97.6546 276.875 97.3685 277.163 97.1778C277.452 96.9394 277.789 96.7963 278.126 96.7486C278.848 96.6056 279.618 96.701 280.243 96.987C281.206 97.3685 282.072 97.9883 282.746 98.7036L288.955 91.8852L288.281 91.2177L286.645 93.0295C285.104 91.5038 283.083 90.4071 280.917 90.0733C280.869 90.0257 280.821 90.0257 280.773 90.0257V71.0487C280.869 71.2394 281.014 71.4302 281.158 71.6686L282.794 74.4817L297.281 98.7036H299.11V70.6673C299.832 70.6196 300.602 70.4765 301.275 70.2381C302.19 69.9044 303.008 69.3799 303.682 68.7124C304.452 67.9495 304.981 66.9005 305.174 65.8515C305.366 64.7549 305.174 63.6105 304.644 62.6092H303.971C303.922 63.1814 303.682 63.7059 303.297 64.135C302.96 64.5641 302.431 64.8502 301.901 64.9933C301.275 65.184 300.65 65.1363 300.072 64.9933C299.495 64.8025 298.917 64.5165 298.436 64.1827C298.003 63.8489 297.666 63.4675 297.329 63.086L296.366 63.0384L290.398 69.9044L291.072 70.6196L292.901 68.5693C293.527 69.1892 294.297 69.666 295.067 69.9997C295.981 70.3812 296.944 70.6196 297.906 70.6673C298.003 73.3374 298.003 75.9598 298.003 78.5823C297.955 81.2047 297.906 83.8272 297.762 86.4019L286.163 67.2343C285.538 66.3283 284.96 65.327 284.286 64.5165C283.612 63.7059 282.746 63.1337 281.784 62.8476C280.58 62.4662 279.185 62.5139 277.981 62.9907C276.778 63.4675 275.768 64.3257 275.046 65.4224C274.179 66.8051 273.891 68.5693 274.227 70.1905L275.142 70.3812C275.19 70.0951 275.286 69.809 275.383 69.4753C275.527 69.1415 275.719 68.8077 275.96 68.5216C276.201 68.2356 276.538 67.9971 276.875 67.9018C277.308 67.8064 277.789 67.8541 278.174 68.0925C278.559 68.2832 278.896 68.5693 279.185 68.9031C279.233 68.9984 279.329 69.0938 279.425 69.1892V75.6261C278.848 75.6261 278.222 75.7214 277.693 75.8645C276.73 76.1506 275.912 76.6274 275.19 77.2472C274.083 78.3439 273.409 79.9173 273.554 81.4431C273.65 82.3491 274.035 83.255 274.613 83.9702C275.238 84.6854 276.056 85.2099 276.923 85.4483Z" fill="black"/>
<path d="M303.619 95.652L305.737 93.9355L312.908 99.1804L322.822 91.2177L322.148 90.0733L316.806 94.1739L311.031 90.2641V88.2138L321.426 81.8246V81.5862L316.565 74.291L305.063 80.2034V92.7911L302.801 94.603L303.619 95.652ZM311.031 87.0694V78.4392L311.993 77.9147L316.132 83.8748L311.031 87.0694Z" fill="black"/>
<path d="M332.497 93.0295V78.2485H335.962L338.224 75.6261H332.497V70.1428H331.582L323.737 77.9624V78.63C324.122 78.63 324.507 78.6776 324.844 78.8684C325.181 79.0114 325.47 79.2498 325.711 79.5359C325.807 79.7743 325.903 79.965 325.951 80.2034C325.999 80.4418 326.047 80.6802 326.047 80.9186V92.5527L322.823 94.603L323.497 95.5566L325.326 94.4123L330.427 98.7512L337.021 95.3182L336.347 94.4123L334.759 95.2705L332.497 93.0295Z" fill="black"/>
<path d="M356.096 74.2433L351.042 78.3916L353.208 80.2988V94.8414L352.293 95.3659L348.491 92.8865V82.8735C348.491 81.7769 348.491 80.6802 348.251 79.6313C348.01 78.5346 347.432 77.5333 346.614 76.8181C346.133 76.389 345.604 76.0552 345.074 75.6737C344.497 75.34 343.967 74.9585 343.534 74.4817C343.053 74.0049 342.764 73.3851 342.716 72.7652C342.668 72.0977 342.908 71.4778 343.342 71.001C343.678 70.6196 344.16 70.3812 344.593 70.2381C344.689 70.1905 344.737 70.1905 344.785 70.1905L344.545 69.2368C343.438 69.3799 342.379 69.666 341.416 70.1905C340.454 70.715 339.588 71.4778 338.962 72.3838C338.481 73.1467 338.144 74.0049 338.192 74.9109C338.192 75.7691 338.481 76.675 339.058 77.3903C339.588 78.1055 340.261 78.6776 340.887 79.2975C341.513 79.9173 342.042 80.6802 342.283 81.5385C342.427 82.063 342.475 82.6351 342.475 83.2073C342.475 83.7795 342.475 84.3516 342.475 84.8761V93.8878L340.31 95.6043L341.176 96.6533L342.668 95.4613L348.154 99.4188L354.219 96.0811L358.887 99.4188L370.053 93.554V78.5346L372.892 76.2459L372.026 75.1969L369.956 76.8658L366.972 74.2433L361.919 78.3916L364.037 80.2988V94.746L362.978 95.3659L359.176 92.8865L359.224 79.9173L361.005 78.4869L356.096 74.2433Z" fill="black"/>
<path d="M381.541 91.4084V77.724L387.076 81.3478V95.0798L381.541 91.4084ZM373.696 95.5089L375.717 93.8878C377.931 95.5089 380.193 97.1301 382.455 98.7512L393.092 92.3143V79.2975L386.161 74.0526L375.332 80.2034C375.332 84.304 375.332 88.4045 375.332 92.5051L372.878 94.46L373.696 95.5089Z" fill="black"/>
<path d="M410.031 92.7435L407.432 94.5076L405.507 93.0295V78.9637C406.229 79.6313 406.999 80.1557 407.865 80.4895C408.443 80.7279 409.068 80.9186 409.646 80.9186C410.272 80.9663 410.897 80.8233 411.475 80.5849C412.197 80.2511 412.774 79.6789 413.207 79.0591C413.592 78.3916 413.881 77.6763 414.122 76.9135C414.362 76.0552 414.507 75.1493 414.603 74.2433H413.159C412.919 74.6248 412.582 74.9585 412.197 75.1493C411.812 75.34 411.378 75.4353 410.897 75.4353C410.079 75.4353 409.261 74.9585 408.828 74.2433H408.346L404.977 78.0578L401.464 74.291L395.015 78.63L395.689 79.5359L397.518 78.3916L399.154 80.4418V93.0295L396.122 95.0798L396.844 95.9857L398.432 94.8414L403.726 98.942L410.945 93.7924L410.031 92.7435Z" fill="black"/>
<path d="M424.241 93.0295V62.1801H423.326L415.481 67.6634V68.3309C415.866 68.474 416.203 68.617 416.588 68.8077C416.925 68.9508 417.214 69.1892 417.455 69.4753C417.551 69.666 417.647 69.9044 417.695 70.1428C417.792 70.3812 417.792 70.6196 417.792 70.858V92.5527L414.567 94.603L415.241 95.5566L417.07 94.4123L422.171 98.7512L428.139 94.603L427.465 93.6971L426.07 94.8414L424.241 93.0295ZM441.086 93.2679L439.016 94.603L429.535 80.6802L430.016 79.7743C430.69 80.3941 431.508 80.871 432.422 81.1094C433.144 81.3478 433.914 81.3954 434.685 81.3001C435.455 81.2047 436.176 80.9186 436.85 80.4895C437.524 80.0604 438.053 79.4405 438.487 78.7253C438.92 78.0578 439.257 77.2949 439.497 76.532C439.69 75.8645 439.834 75.1969 439.93 74.5294H439.016C438.727 75.0539 438.294 75.483 437.765 75.8168C437.235 76.1506 436.61 76.3413 435.984 76.3413C435.358 76.3413 434.685 76.1982 434.107 75.8645C433.578 75.5784 433.096 75.0539 432.759 74.5294H432.326L425.155 85.496L434.636 99.1804L442 94.4123L441.086 93.2679Z" fill="black"/>
</svg>
