<svg width="264" height="168" viewBox="0 0 264 168" fill="none" xmlns="http://www.w3.org/2000/svg">
<rect width="264" height="168" fill="white"/>
<path fill-rule="evenodd" clip-rule="evenodd" d="M111.396 55.6644L111.68 55.2576C111.396 55.1123 111.169 54.8798 111.055 54.5892C110.941 54.2696 110.97 53.9499 111.055 53.6593C111.169 53.3978 111.339 53.1653 111.538 53.02C111.765 52.8457 111.992 52.7294 112.276 52.6713C112.788 52.5551 113.327 52.6132 113.839 52.7294C114.73 52.9118 115.621 53.1506 116.502 53.3868C116.885 53.4894 117.266 53.5916 117.645 53.6884C118.01 53.7735 118.376 53.866 118.743 53.9587C119.628 54.1827 120.518 54.4078 121.422 54.5311C121.536 54.5602 121.678 54.5892 121.82 54.5892V58.1636L119.945 60.0815L121.82 61.9994V66.9105C121.081 67.2883 120.286 67.5498 119.462 67.637C118.099 67.8113 116.679 67.5498 115.486 66.8524C115.003 66.5908 114.549 66.2421 114.151 65.8353L119.15 63.6849V54.8508L112.901 57.5824C113.526 56.1875 114.52 54.9961 115.77 54.1534L115.486 53.7175C113.867 54.0081 112.362 54.7927 111.197 55.955C110.032 57.1465 109.237 58.6866 108.925 60.343C108.442 62.9875 109.294 65.8353 111.083 67.8404C112.873 69.8455 115.543 70.9788 118.184 70.8916C119.633 70.8335 121.053 70.4267 122.303 69.6711C123.553 68.9156 124.575 67.8113 125.257 66.5037C125.853 65.3122 126.166 63.9755 126.109 62.6387H125.569C125.058 63.9464 124.234 65.1088 123.183 66.0096C123.084 66.0822 122.992 66.1548 122.9 66.2274C122.807 66.3 122.715 66.3729 122.615 66.4455V62.0285L124.49 60.0815L122.615 58.1345V54.6474C122.843 54.6474 123.098 54.6183 123.325 54.5892C123.979 54.5311 124.604 54.2987 125.115 53.9499C125.74 53.514 126.194 52.9038 126.393 52.1773C126.563 51.4508 126.478 50.6662 126.137 50.0269C125.825 49.4167 125.314 48.9226 124.717 48.603C124.149 48.2833 123.467 48.109 122.814 48.0218C122.473 47.9927 122.104 47.9927 121.763 48.0218V48.5739C122.047 48.603 122.36 48.6611 122.672 48.7192C122.984 48.8064 123.269 48.8936 123.524 49.097C123.638 49.1842 123.751 49.3295 123.837 49.4748C123.893 49.591 123.922 49.7654 123.922 49.9107C123.893 50.085 123.837 50.2013 123.751 50.3466C123.666 50.4628 123.553 50.55 123.439 50.6372C123.183 50.7534 122.871 50.7824 122.587 50.7824C121.901 50.7591 121.233 50.585 120.57 50.4119C120.409 50.37 120.248 50.3281 120.087 50.2884C119.288 50.1163 118.52 49.8485 117.748 49.5795C117.478 49.4853 117.207 49.3909 116.935 49.3004C116.224 49.0679 115.514 48.8645 114.776 48.7483C114.037 48.6611 113.299 48.6902 112.589 48.8645C111.935 49.0389 111.311 49.3585 110.799 49.7944C110.288 50.2303 109.89 50.8115 109.663 51.4508C109.379 52.2354 109.408 53.1363 109.72 53.9209C110.032 54.7055 110.657 55.3448 111.396 55.6644ZM112.532 58.5704L115.486 57.2918V64.4114L113.611 65.225C113.157 64.6148 112.788 63.9174 112.532 63.1909C112.049 61.7088 112.077 60.0524 112.532 58.5704Z" fill="black"/>
<path d="M133.327 67.5207V60.343L134.889 58.8319L136.593 60.2849V67.2301C136.593 68.4216 136.565 69.613 136.195 70.7463C135.968 71.4438 135.627 72.0831 135.116 72.6062C134.662 73.042 134.065 73.3617 133.469 73.507V74.2044C134.605 74.3788 135.798 74.2044 136.849 73.7104C137.871 73.2455 138.723 72.4899 139.32 71.5309C139.717 70.8626 140.002 70.107 140.115 69.3224C140.257 68.5378 140.257 67.7532 140.257 66.9686V59.3841L141.479 58.367L140.996 57.7277L139.859 58.6576L136.849 56.1003L133.327 59.5003V48.7192H132.787L128.157 52.0611V52.4679C128.384 52.5551 128.583 52.6423 128.81 52.7585C129.009 52.8457 129.18 52.991 129.322 53.1653C129.378 53.2816 129.435 53.4269 129.464 53.5722C129.521 53.7175 129.521 53.8628 129.521 54.0081V67.2301L127.617 68.4797L128.1 69.1481L129.18 68.4506L132.105 71.0079L135.627 68.4797L135.116 67.8404L134.236 68.4506L133.327 67.5207Z" fill="black"/>
<path fill-rule="evenodd" clip-rule="evenodd" d="M143.191 68.0729L141.942 69.119L141.459 68.4797L142.794 67.3754V59.7037L149.582 56.1003L152.451 60.5464V60.6917L146.316 64.5857V65.8353L149.724 68.2182L152.877 65.719L153.275 66.4165L147.424 71.2694L143.191 68.0729ZM146.316 58.6285V63.8883L149.327 61.9413L146.884 58.3089L146.316 58.6285Z" fill="black"/>
<path d="M45.8176 91.4296C45.114 89.8948 44.8795 88.124 45.2313 86.4121C45.4072 85.5266 45.759 84.5822 46.2867 83.8148C46.873 83.1064 47.6352 82.4571 48.5147 82.1029C49.5115 81.6307 50.6842 81.5126 51.7982 81.5126C51.8568 80.0959 51.9741 78.6792 52.4431 77.3805C52.7949 76.377 53.264 75.4916 53.909 74.7242C54.5539 73.9568 55.3161 73.2484 56.0784 72.5991L58.4823 70.5921C57.9546 70.8282 57.4269 71.0643 56.8406 71.1824C55.5507 71.5366 54.2608 71.4185 52.9708 71.1234C52.5284 71.0221 52.0928 70.9001 51.6594 70.7786C50.8293 70.5459 50.0071 70.3155 49.1597 70.2379C48.3388 70.1789 47.518 70.297 46.873 70.7102C46.1108 71.1234 45.5244 71.8908 45.3485 72.7172H44C45.2313 70.4741 46.6385 68.2309 48.5147 66.46C49.2183 65.8107 50.0392 65.2204 50.9187 64.8072C51.7982 64.394 52.7949 64.2169 53.7917 64.2169C54.7173 64.2687 55.643 64.5475 56.5291 64.8144C56.6532 64.8518 56.7768 64.889 56.8992 64.9252C57.896 65.2794 58.9514 65.6336 60.0068 65.8107C60.8276 65.9288 61.7071 65.8697 62.528 65.6926C63.642 65.5156 64.6388 65.0433 65.5769 64.394L65.4597 65.2794C65.3424 65.3975 65.2837 65.4565 65.1665 65.5156C64.5215 66.0468 63.8765 66.6371 63.3489 67.2864C62.0589 68.7622 61.0035 70.415 60.2999 72.2449C59.5377 74.252 59.3618 76.377 59.3618 78.5021V89.6587C59.3618 90.5442 59.3618 91.4296 59.1859 92.3151C59.0686 93.1415 58.8341 94.0269 58.4237 94.7943C57.6028 96.3881 56.3129 97.6277 54.8471 98.6312C53.3813 99.6938 51.7395 100.52 50.0978 101.11H48.1629C48.9252 100.756 49.6288 100.225 50.1565 99.5167C50.86 98.6312 51.3291 97.5687 51.5636 96.3881C51.7982 95.2666 51.7982 94.086 51.7982 92.9644V88.0649H49.277C48.9838 88.1239 48.632 88.242 48.3388 88.3601C47.8111 88.6552 47.3421 89.1865 47.1075 89.7768C46.873 90.308 46.8144 90.8983 46.9316 91.4296H45.8176Z" fill="black"/>
<path fill-rule="evenodd" clip-rule="evenodd" d="M75.3686 73.6026C73.4337 73.5436 71.4988 72.8943 69.8571 71.8317L67.6291 74.37L66.8082 73.4846L74.02 64.8072C74.8995 65.8697 76.1308 66.6371 77.4208 66.9913C78.8279 67.4045 80.3524 67.3455 81.6423 66.6371C82.6391 66.0468 83.46 65.0433 83.7531 63.9217H84.574C84.8672 65.6336 84.6326 67.4045 83.8118 68.9393C83.0495 70.474 81.7596 71.7727 80.2938 72.5401C79.2384 73.0714 78.183 73.4255 77.069 73.5436L69.4467 82.3981C70.9125 82.8703 72.3197 83.5787 73.6096 84.4641C75.0168 85.5266 76.2481 86.8253 77.1862 88.242C78.1244 89.7178 78.828 91.3706 79.297 93.0234C79.5595 94.0049 79.774 94.9623 79.9866 95.911C80.1064 96.4456 80.2256 96.9778 80.3524 97.5097C80.7628 99.0445 81.2319 100.52 82.0528 101.819C82.6391 102.763 83.3427 103.59 84.1636 104.298L88.2092 101.17V102.999L79.2384 110.142C78.0071 109.552 76.8931 108.666 76.0136 107.545C75.0754 106.482 74.4305 105.125 73.9614 103.767L65.8114 110.201C63.7007 108.607 61.2967 107.368 58.7169 106.777C57.1338 106.423 55.492 106.305 53.909 106.541C52.3259 106.718 50.7428 107.25 49.3942 108.076C48.1629 108.843 47.1075 109.847 46.3453 111.087H44.5863C45.1726 109.788 45.9935 108.607 46.873 107.427C48.9252 104.888 51.6809 102.822 54.6712 101.583C55.8438 100.815 56.9579 100.048 58.0133 99.1625C59.1859 98.159 60.2413 97.0965 60.8276 95.7978C61.1794 95.1485 61.3553 94.4401 61.4726 93.7318C61.6485 93.0234 61.6485 92.3151 61.6485 91.4887L61.9417 77.4986C62.0003 75.7277 62.1176 73.8387 62.7039 72.0679C63.2902 70.2379 64.287 68.6441 65.4597 67.2274C66.6323 65.8697 68.0395 64.6301 69.5053 63.5676L69.9744 64.2169L70.4434 64.9252C69.0949 65.8697 67.805 67.0503 66.6909 68.349C65.6355 69.5886 64.7561 71.0053 64.287 72.5991C63.7593 74.0749 63.642 75.7867 63.5834 77.4986L63.4075 87.5927L75.3686 73.6026ZM62.2935 96.5062C61.5312 98.1 60.3586 99.3396 59.0686 100.402C59.2518 100.371 59.4349 100.357 59.6263 100.341C59.8025 100.327 59.986 100.312 60.1827 100.284C64.3456 100.048 68.6845 101.406 71.9093 104.062L73.6096 102.763C73.2578 101.583 73.0233 100.402 72.7888 99.2216C72.3783 97.4507 71.9093 95.6798 71.0884 94.086C70.3262 92.4331 69.2122 90.8983 67.7463 89.8358C66.6909 89.1275 65.5183 88.5962 64.3456 88.3601L63.5834 89.1865H63.3489L63.2902 91.5477C63.2902 92.315 63.2902 93.2005 63.1143 94.0269C62.9971 94.9124 62.7039 95.7388 62.2935 96.5062Z" fill="black"/>
<path fill-rule="evenodd" clip-rule="evenodd" d="M91.7803 103.826L89.2005 105.951L88.2037 104.652L90.9595 102.409V86.8253L104.973 79.5056L110.895 88.5372V88.8323L98.2299 96.7423V99.2806L105.266 104.121L111.774 99.0445L112.595 100.461L100.517 110.319L91.7803 103.826ZM98.2299 84.6412V95.3256L104.445 91.3706L99.4026 83.9919L98.2299 84.6412Z" fill="black"/>
<path fill-rule="evenodd" clip-rule="evenodd" d="M113.593 105.951L116.173 103.826L124.909 110.319L136.987 100.461L136.166 99.0445L129.658 104.121L122.622 99.2806V96.7423L135.287 88.8323V88.5372L129.365 79.5056L115.352 86.8253V102.409L112.596 104.652L113.593 105.951ZM122.622 95.3256V84.6412L123.795 83.9919L128.837 91.3706L122.622 95.3256Z" fill="black"/>
<path fill-rule="evenodd" clip-rule="evenodd" d="M138.219 104.593L141.21 102.055V87.2975C141.268 86.9434 141.21 86.5302 141.034 86.1169C140.858 85.7628 140.623 85.4676 140.272 85.2315C139.92 84.9363 139.451 84.7593 138.923 84.7593C138.454 84.7593 137.985 84.8773 137.574 85.1725L136.988 84.228L144.083 79.4466C145.021 80.0369 145.842 80.8043 146.545 81.6307C147.132 82.28 147.601 83.0474 148.011 83.8738V84.9363L155.399 79.3875L161.086 84.4051L162.904 82.9293L163.901 84.228L161.731 85.9989V102.468C159.914 103.472 158.155 104.593 156.454 105.774C154.93 106.895 153.405 108.076 151.998 109.257C150.708 108.548 149.418 107.84 148.011 107.25V109.965C148.011 110.437 148.011 110.85 148.07 111.323C148.081 111.364 148.093 111.405 148.105 111.447C148.211 111.828 148.328 112.243 148.539 112.562C148.715 112.975 149.008 113.271 149.36 113.566C149.77 113.861 150.239 114.038 150.708 114.097V114.923L142.324 120H141.21V105.125C140.545 104.967 139.881 104.862 139.216 104.757C138.884 104.705 138.552 104.652 138.219 104.593ZM150.591 84.9363L148.011 86.8843V102.881C148.151 102.917 148.269 102.973 148.38 103.025C148.455 103.06 148.526 103.094 148.597 103.118C150.591 103.885 152.526 104.77 154.461 105.656V88.124L150.591 84.9363Z" fill="black"/>
<path d="M173.532 90.8393C175.173 89.6587 177.284 89.1275 179.336 89.3636C181.154 89.5997 182.913 90.4261 184.203 91.7838C185.962 93.6137 186.783 96.2701 186.665 98.8083C186.489 100.933 185.786 103.058 184.437 104.711C183.147 106.364 181.271 107.604 179.219 107.958C177.519 108.312 175.76 108.017 174.294 107.25C172.769 106.423 171.597 105.125 170.952 103.531C172.124 103.826 173.414 103.531 174.411 102.763C175.349 101.996 175.994 100.815 176.111 99.5757C176.17 98.3951 175.701 97.2145 174.88 96.3291C174.059 95.4436 172.887 94.9714 171.714 94.9124C170.189 94.9124 168.782 95.6798 167.844 96.8013C166.906 97.9819 166.437 99.4577 166.554 100.933C166.554 102.35 167.082 103.708 167.786 104.888C168.548 106.069 169.545 107.013 170.717 107.781C173.004 109.316 175.76 110.024 178.574 110.024C181.74 110.024 184.906 109.139 187.662 107.545C190.476 105.892 192.822 103.531 194.17 100.579C195.402 98.159 195.871 95.3256 195.46 92.6102C195.05 89.9539 193.76 87.3566 191.766 85.4676C189.656 83.5196 186.783 82.339 183.91 82.28L192.118 75.4916L193.056 67.5816H168.9L167.375 75.6096H188.424L171.655 89.4816L173.532 90.8393Z" fill="black"/>
<path d="M211.264 104.534L214.43 102.35L215.544 103.649L206.749 110.024L200.299 104.947L198.364 106.364L197.485 105.243L201.179 102.704V87.1204L199.185 84.5822L196.957 85.9989L196.136 84.8773L203.993 79.5056L208.273 84.169L212.378 79.4466H212.964C213.492 80.332 214.488 80.9223 215.485 80.9223C216.072 80.9223 216.599 80.8043 217.068 80.5681C217.537 80.332 217.948 79.9188 218.241 79.4466H220C219.883 80.5681 219.707 81.6897 219.414 82.7522C219.12 83.6967 218.769 84.5822 218.3 85.4086C217.772 86.176 217.068 86.8843 216.189 87.2975C215.485 87.5927 214.723 87.7698 213.961 87.7107C213.257 87.7107 212.495 87.4746 211.791 87.1795C210.736 86.7663 209.798 86.1169 208.918 85.2905V102.704L211.264 104.534Z" fill="black"/>
</svg>
